<?xml version="1.0" standalone="no"?>
<!DOCTYPE svg PUBLIC "-//W3C//DTD SVG 20010904//EN"
 "http://www.w3.org/TR/2001/REC-SVG-20010904/DTD/svg10.dtd">
<svg version="1.0" xmlns="http://www.w3.org/2000/svg"
 width="2474.000000pt" height="2770.000000pt" viewBox="0 0 2474.000000 2770.000000"
 preserveAspectRatio="xMidYMid meet">

<g transform="translate(0.000000,2770.000000) scale(0.100000,-0.100000)"
fill="#000000" stroke="none">
<path d="M12119 18800 c-63 -4 -131 -11 -150 -15 -50 -10 -557 -186 -696 -242
-140 -56 -588 -278 -723 -358 -52 -31 -129 -74 -170 -95 -74 -37 -210 -132
-280 -195 -65 -57 -146 -105 -178 -105 -25 0 -45 13 -96 62 -84 81 -201 151
-364 217 l-133 54 -85 -21 c-137 -35 -145 -40 -212 -138 -34 -49 -125 -163
-202 -254 -78 -91 -169 -200 -203 -243 -34 -43 -101 -127 -150 -185 -95 -116
-336 -468 -410 -598 -93 -165 -164 -358 -221 -606 -14 -57 -41 -166 -61 -243
-48 -183 -96 -410 -151 -725 -71 -405 -81 -476 -93 -625 -6 -77 -18 -196 -26
-265 -36 -315 -45 -407 -45 -440 0 -50 -12 -65 -39 -51 -11 7 -21 16 -21 21 0
6 -15 10 -32 10 -28 0 -47 -15 -139 -108 -103 -103 -108 -110 -129 -182 -32
-109 -95 -237 -120 -245 -21 -7 -315 5 -725 30 -132 8 -325 19 -430 25 -240
14 -470 35 -639 60 -235 34 -638 99 -751 120 -60 12 -242 43 -404 70 -866 147
-996 173 -1496 305 -300 79 -446 120 -665 187 -337 102 -462 104 -540 6 -61
-75 -36 -148 131 -378 50 -69 112 -156 137 -195 98 -150 223 -313 293 -385 41
-41 164 -172 273 -290 110 -118 279 -291 375 -385 97 -93 239 -233 316 -310
93 -94 172 -162 235 -205 52 -35 141 -100 198 -144 179 -140 368 -266 578
-383 50 -28 155 -95 234 -148 79 -52 205 -125 279 -161 74 -35 198 -107 276
-158 77 -52 185 -118 240 -149 55 -30 154 -88 221 -129 66 -42 135 -83 153
-93 32 -16 33 -19 27 -62 -3 -25 -13 -118 -21 -206 -8 -89 -22 -229 -30 -312
-40 -405 -69 -879 -60 -995 9 -110 24 -168 48 -185 53 -37 147 -4 186 65 19
35 25 64 32 164 12 191 19 1052 9 1251 -5 99 -8 181 -7 182 2 1 52 -27 112
-63 133 -79 335 -178 467 -230 89 -35 98 -41 103 -68 3 -17 11 -52 17 -77 10
-41 9 -52 -13 -95 -35 -73 -39 -216 -9 -311 l22 -70 -26 -38 c-22 -31 -26 -50
-27 -109 -2 -106 1 -136 13 -188 9 -38 9 -56 -4 -95 -22 -69 -16 -478 8 -504
14 -16 13 -18 -15 -24 -44 -9 -67 -44 -81 -122 -7 -38 -19 -86 -27 -108 -17
-48 -8 -154 14 -170 12 -9 4 -26 -46 -100 -80 -117 -183 -224 -306 -316 -55
-42 -108 -80 -119 -86 -45 -25 71 -45 188 -31 49 5 92 6 97 1 25 -25 -82 -313
-149 -401 -33 -43 -33 -46 -16 -59 12 -9 52 -13 128 -13 92 0 123 5 181 25 38
14 82 34 97 45 27 20 27 20 37 1 6 -11 17 -58 24 -105 15 -93 37 -136 68 -136
35 0 215 196 276 302 38 65 71 171 78 251 4 42 12 77 17 77 6 0 28 -16 50 -36
22 -20 55 -42 74 -50 37 -15 124 -19 124 -5 0 5 -31 34 -69 65 -126 101 -159
155 -240 389 l-51 148 27 23 27 23 -13 84 c-23 146 -52 273 -66 296 -11 16
-12 30 -5 54 17 57 11 143 -16 254 l-26 107 33 66 c31 64 32 67 26 165 -5 71
-12 112 -28 144 -22 45 -21 60 5 128 20 52 20 175 1 248 -15 57 -15 59 12 115
17 37 27 74 27 105 0 53 -4 52 86 17 163 -64 335 -141 458 -206 l142 -75 63
30 c81 39 163 53 322 55 126 1 132 0 195 -30 85 -40 234 -174 270 -243 7 -13
28 -81 47 -150 43 -160 56 -335 29 -404 -19 -51 -60 -96 -136 -147 -108 -73
-110 -74 -275 -74 -82 -1 -176 2 -207 6 -68 7 -123 -9 -149 -43 -24 -31 -24
-45 4 -79 12 -15 30 -41 39 -59 21 -38 156 -127 258 -170 105 -44 179 -82 209
-107 14 -12 40 -28 56 -37 17 -9 75 -57 130 -107 107 -98 187 -145 264 -156
106 -14 123 -23 201 -103 41 -42 111 -103 154 -136 140 -106 195 -151 299
-249 56 -52 148 -130 204 -173 56 -43 189 -144 295 -225 106 -81 250 -194 319
-250 70 -57 195 -158 277 -225 185 -150 483 -343 529 -343 10 0 59 -31 108
-68 349 -264 662 -444 872 -501 110 -30 164 -38 427 -67 252 -27 713 -7 951
41 148 31 537 246 829 459 82 60 235 164 342 232 187 120 302 204 448 329 90
76 198 162 457 361 415 320 459 355 563 454 92 86 182 160 350 286 23 17 65
58 94 92 48 55 58 62 110 72 179 36 204 49 337 170 55 50 114 98 130 107 17 9
42 25 56 37 30 25 104 63 209 107 102 43 237 132 258 170 9 18 27 44 40 59 27
34 27 48 3 79 -26 34 -81 50 -149 43 -31 -4 -124 -7 -207 -6 -165 0 -167 1
-275 74 -76 51 -117 96 -136 147 -27 69 -14 244 29 404 19 69 40 137 47 150
36 69 185 203 270 243 63 30 69 31 195 30 159 -2 241 -16 322 -55 l63 -30 142
75 c161 84 512 236 547 236 5 0 8 -24 7 -52 -1 -39 6 -68 27 -111 27 -56 27
-58 12 -109 -22 -77 -20 -200 6 -274 l22 -62 -23 -46 c-16 -35 -23 -71 -27
-146 -6 -96 -5 -101 26 -164 l32 -64 -25 -107 c-25 -104 -32 -203 -17 -255 5
-16 1 -40 -10 -65 -17 -39 -69 -304 -69 -350 0 -13 11 -32 24 -43 l25 -19 -53
-154 c-80 -234 -111 -283 -237 -385 -38 -31 -69 -60 -69 -65 0 -14 87 -10 124
5 19 8 52 30 74 50 22 20 44 36 49 36 6 0 13 -36 17 -80 8 -97 48 -206 111
-300 59 -87 218 -250 245 -250 30 0 56 51 64 127 4 36 13 81 21 100 l14 34 28
-21 c16 -11 60 -31 98 -45 58 -20 89 -25 181 -25 77 0 116 4 129 14 18 13 18
14 -4 37 -64 68 -190 394 -162 422 5 5 48 4 97 -1 117 -14 234 6 188 31 -11 6
-71 50 -135 98 -125 96 -203 178 -292 308 -54 78 -57 85 -42 101 9 10 15 27
14 37 -1 10 1 31 6 47 5 19 2 46 -8 80 -9 28 -21 80 -28 116 -14 72 -40 107
-88 116 -30 6 -30 7 -11 23 20 16 23 58 18 281 0 25 3 70 7 101 5 42 3 70 -11
112 -15 49 -16 63 -5 109 8 32 12 95 9 160 -3 93 -6 110 -27 138 l-23 32 22
75 c30 102 26 235 -10 306 -22 43 -23 52 -12 93 7 24 12 57 12 72 0 15 4 33 9
40 4 8 53 31 107 53 133 54 317 145 442 219 57 34 105 60 107 58 1 -2 -1 -77
-5 -168 -10 -224 -4 -1238 9 -1323 11 -77 40 -131 85 -158 31 -19 89 -25 121
-13 51 20 67 152 54 449 -11 250 -69 946 -105 1245 l-6 55 34 17 c19 9 91 51
159 93 68 43 169 102 224 132 55 31 163 97 240 149 78 51 202 123 276 158 74
36 200 109 279 161 79 53 184 120 234 148 210 117 399 243 578 383 57 44 146
109 198 144 63 43 142 111 235 205 77 77 219 217 316 310 96 94 265 267 375
385 109 118 232 249 273 290 70 72 195 235 293 385 25 39 87 126 137 195 167
230 192 303 131 378 -78 98 -203 96 -540 -6 -219 -67 -365 -108 -665 -187
-500 -132 -630 -158 -1496 -305 -162 -27 -343 -58 -404 -70 -113 -21 -516 -86
-751 -120 -169 -25 -399 -46 -639 -60 -104 -6 -298 -17 -430 -25 -410 -25
-704 -37 -725 -30 -25 8 -88 136 -120 245 -21 72 -26 78 -130 184 l-108 109
-41 -6 -41 -5 0 40 c0 22 -6 95 -14 162 -20 161 -43 376 -62 566 -8 85 -19
182 -24 215 -29 204 -166 937 -181 970 -4 11 -34 124 -64 250 -129 525 -167
615 -428 1004 -72 107 -171 244 -221 305 -50 62 -117 145 -149 186 -32 41
-125 154 -208 250 -82 96 -177 215 -211 264 -67 98 -75 103 -212 138 l-85 21
-140 -57 c-167 -69 -276 -135 -359 -216 -91 -88 -96 -87 -274 52 -170 132
-198 150 -438 280 -261 142 -599 308 -748 367 -183 72 -633 228 -694 240 -76
14 -245 19 -379 11z m-3612 -1912 c117 -129 145 -155 221 -204 117 -78 204
-117 386 -175 178 -57 270 -97 431 -188 164 -93 216 -152 251 -284 28 -105 11
-229 -46 -350 -39 -80 -161 -210 -240 -255 -208 -117 -567 -95 -806 49 -189
115 -326 298 -374 503 -67 280 -70 589 -8 819 26 95 54 127 109 127 33 0 45
-7 76 -42z m7605 17 c26 -26 57 -125 79 -255 26 -152 7 -464 -41 -666 -59
-248 -246 -462 -492 -561 -98 -40 -239 -65 -363 -65 -202 0 -321 47 -451 179
-174 177 -220 399 -125 596 31 64 94 119 216 188 161 91 253 131 431 188 182
58 269 97 386 175 76 49 104 75 221 204 31 35 43 42 76 42 27 0 45 -7 63 -25z
m-6035 -3800 c197 -41 334 -122 548 -319 181 -167 288 -347 350 -586 96 -372
63 -721 -101 -1069 -121 -258 -336 -479 -568 -587 -149 -68 -239 -92 -404
-106 -137 -11 -163 -10 -234 4 -85 18 -286 109 -375 169 -145 99 -269 229
-377 396 -61 94 -80 142 -123 298 -54 199 -62 240 -72 380 -27 389 113 858
323 1083 153 163 409 309 598 341 89 15 359 13 435 -4z m4752 4 c142 -23 311
-100 451 -205 232 -175 340 -355 435 -724 52 -203 62 -510 21 -685 -26 -117
-85 -321 -105 -368 -53 -123 -208 -326 -320 -419 -110 -92 -157 -122 -296
-189 -175 -85 -238 -97 -437 -81 -165 14 -255 38 -404 106 -232 108 -447 329
-568 587 -164 349 -197 696 -100 1070 61 236 164 413 338 575 216 201 358 286
556 330 69 15 343 17 429 3z m-9357 -2230 c36 -26 58 -74 58 -128 0 -49 -15
-61 -28 -23 -7 22 -21 31 -65 45 -51 16 -59 16 -93 2 -20 -8 -38 -15 -39 -15
-2 0 3 21 11 48 25 86 92 116 156 71z m13611 1 c21 -17 57 -101 57 -134 0 -3
-22 6 -50 20 -49 26 -50 26 -100 9 -37 -12 -54 -24 -63 -44 l-11 -26 -4 29
c-7 53 8 99 45 133 41 39 87 44 126 13z m-12701 -291 c29 -11 68 -35 86 -52
l33 -32 -6 -80 c-4 -44 -10 -84 -15 -88 -4 -5 -15 11 -24 35 -22 54 -41 75
-90 100 -57 29 -117 21 -162 -23 -31 -30 -34 -38 -29 -69 8 -49 -11 -17 -24
41 -9 38 -7 51 14 97 20 43 32 56 67 72 55 25 85 25 150 -1z m11826 1 c34 -16
47 -29 67 -71 16 -36 22 -62 18 -83 -6 -34 -23 -59 -24 -35 0 7 -18 29 -41 47
-79 63 -185 28 -232 -80 -29 -65 -41 -51 -51 57 l-6 80 33 32 c37 36 118 72
163 72 17 0 49 -8 73 -19z m-8498 -1585 c25 -9 72 -43 118 -87 43 -39 115 -96
162 -126 47 -30 115 -75 152 -99 94 -62 168 -89 305 -114 103 -19 142 -21 313
-16 226 6 293 19 603 116 471 147 701 188 997 177 252 -9 426 -45 790 -166
377 -125 631 -156 889 -110 142 26 203 51 343 141 62 40 130 83 151 96 20 13
78 62 128 109 l91 86 55 -4 c46 -4 61 -10 81 -33 20 -23 23 -35 18 -64 -4 -20
-8 -79 -9 -131 -4 -165 -53 -229 -166 -215 -51 6 -143 11 -264 15 -57 2 -104
-12 -174 -51 -29 -16 -67 -29 -84 -29 -18 0 -79 -16 -137 -36 l-105 -36 -141
5 c-159 6 -357 43 -786 147 -400 97 -383 95 -800 95 -419 0 -396 3 -820 -100
-431 -104 -613 -137 -775 -142 l-140 -5 -98 36 c-54 20 -112 36 -129 36 -16 0
-62 16 -102 35 -77 38 -149 55 -193 47 -15 -3 -62 -6 -103 -7 -41 -1 -98 -6
-127 -10 -67 -10 -108 6 -127 49 -30 72 -35 107 -34 236 1 176 14 192 118 155z
m-3417 -452 c-7 -2 -21 -2 -30 0 -10 3 -4 5 12 5 17 0 24 -2 18 -5z m60 -10
c-7 -2 -21 -2 -30 0 -10 3 -4 5 12 5 17 0 24 -2 18 -5z m11834 1 c-3 -3 -12
-4 -19 -1 -8 3 -5 6 6 6 11 1 17 -2 13 -5z m-54 -11 c-7 -2 -21 -2 -30 0 -10
3 -4 5 12 5 17 0 24 -2 18 -5z"/>
</g>
</svg>
